<svg width="53" height="67" viewBox="0 0 53 67" fill="none" xmlns="http://www.w3.org/2000/svg">
<path fill-rule="evenodd" clip-rule="evenodd" d="M23.3299 62.432L23.4098 62.5919C24.2574 64.1757 25.6607 65.3904 27.3498 66.002C27.8545 66.2223 28.3992 66.3358 28.9499 66.3358C29.5005 66.3358 30.0452 66.2223 30.5498 66.002C31.4896 65.5057 32.2334 64.7055 32.6598 63.732C32.9109 63.2239 33.1184 62.6952 33.2799 62.1519C32.5037 62.3572 31.7104 62.491 30.9098 62.5518C30.3598 63.8918 29.5299 64.6319 28.0699 64.0819C27.2317 63.794 26.4741 63.3108 25.8598 62.672C25.0108 62.6472 24.165 62.557 23.3299 62.4019V62.432ZM33.8999 59.432V59.212L33.7699 59.262L33.8698 59.432H33.8999ZM34.6198 49.0919C34.5942 47.4589 34.7757 45.8294 35.1598 44.242C35.5807 43.2829 36.1777 42.4111 36.9198 41.6719C38.104 40.4416 39.3995 39.3234 40.7898 38.3319C45.3898 34.9919 47.2398 31.1519 46.4798 26.8519C45.8998 23.5519 43.6899 19.902 39.7599 15.942C37.4241 13.6189 34.5186 11.9508 31.3348 11.1048C28.151 10.2588 24.8007 10.2646 21.6198 11.1219C16.0698 12.5919 10.8299 16.672 7.70987 23.772C5.51987 28.772 6.03987 32.0819 7.70987 34.5919C9.10987 36.7219 11.4199 38.2919 13.7099 39.9019C18.3099 43.0919 20.1198 45.2019 21.0398 49.1319L21.7498 48.9019L22.3799 48.732C21.6999 45.012 20.3798 42.162 14.8698 38.252C12.7998 36.772 10.7098 35.372 9.46982 33.432C8.22982 31.492 7.92984 28.722 9.73984 24.682C12.5598 18.342 17.2299 14.6819 22.1999 13.3619C24.9861 12.6128 27.9201 12.6084 30.7086 13.349C33.4972 14.0895 36.0424 15.5491 38.0899 17.5819C41.6099 21.1119 43.6599 24.312 44.1898 27.262C44.8098 30.742 43.1898 33.772 39.4198 36.482C37.9154 37.5691 36.5129 38.7907 35.2298 40.1319C34.2991 41.0884 33.5562 42.2113 33.0398 43.442C32.6155 45.0574 32.407 46.7218 32.4198 48.3919C33.1868 48.5019 33.9303 48.7384 34.6198 49.0919Z" fill="#C1D22E"/>
<path fill-rule="evenodd" clip-rule="evenodd" d="M23.1403 32.4226C22.9403 32.2126 22.7503 32.0025 22.5903 31.8025C22.2459 31.2856 21.7446 30.8932 21.1603 30.6826C20.9392 30.6229 20.7053 30.6299 20.4882 30.7029C20.2711 30.7758 20.0805 30.9114 19.9403 31.0925C19.7057 31.375 19.5689 31.7258 19.5503 32.0925C19.5176 32.8343 19.5815 33.5771 19.7403 34.3025C20.2603 37.1925 21.4903 40.2425 24.0003 47.0825C24.0364 47.1856 24.0925 47.2806 24.1653 47.362C24.2381 47.4435 24.3263 47.5098 24.4247 47.5571C24.5231 47.6045 24.6299 47.6321 24.739 47.6382C24.848 47.6443 24.9572 47.6286 25.0603 47.5925C25.1634 47.5564 25.2584 47.5003 25.3398 47.4275C25.4212 47.3547 25.4875 47.2666 25.5349 47.1682C25.5822 47.0698 25.6097 46.963 25.6158 46.854C25.6219 46.7449 25.6064 46.6355 25.5703 46.5325C23.9503 41.7925 22.7603 40.0325 22.0303 37.1025C21.6803 35.7425 21.3703 33.4725 21.2403 32.6125C21.5103 32.9025 22.2403 34.3626 22.5203 34.6726C22.2879 35.4438 22.2872 36.2662 22.5183 37.0378C22.7494 37.8094 23.2022 38.4962 23.8203 39.0127C24.0227 39.197 24.2756 39.3165 24.5466 39.3557C24.8175 39.3949 25.094 39.352 25.3403 39.2326C25.5089 39.1367 25.6538 39.0044 25.7645 38.8452C25.8753 38.686 25.949 38.5039 25.9803 38.3125C26.0636 37.6048 26.0059 36.8878 25.8103 36.2026C25.6534 35.5807 25.3747 34.9961 24.9903 34.4826L24.7003 34.1025C24.8407 33.4238 25.0278 32.7555 25.2603 32.1025C26.2603 30.0325 26.5703 31.5425 27.1703 33.3525C26.5455 34.5925 26.2267 35.9641 26.2403 37.3525C26.3403 38.8625 27.2403 39.1525 27.7603 39.0825C28.0912 39.0272 28.392 38.8573 28.6103 38.6025C28.9599 38.1567 29.2028 37.6367 29.3203 37.0825C29.5736 35.8872 29.5565 34.6505 29.2703 33.4626C31.5903 29.5326 30.2703 36.6826 30.1703 37.7126C29.6303 42.2526 28.6603 47.4927 28.6603 47.4927C28.6374 47.5742 28.6315 47.6595 28.6428 47.7434C28.6542 47.8273 28.6826 47.908 28.7263 47.9804C28.77 48.0529 28.8282 48.1156 28.8971 48.1648C28.966 48.214 29.0442 48.2486 29.127 48.2663C29.2098 48.2841 29.2953 48.2848 29.3783 48.2683C29.4613 48.2518 29.5401 48.2183 29.6097 48.1701C29.6794 48.122 29.7384 48.0601 29.7833 47.9883C29.8281 47.9164 29.8577 47.8364 29.8703 47.7527C30.9131 43.4109 31.7111 39.0138 32.2603 34.5825C32.394 33.6171 32.394 32.638 32.2603 31.6726C32.2242 31.4371 32.1398 31.2116 32.0125 31.0102C31.8851 30.8089 31.7176 30.6362 31.5203 30.5027C30.6603 29.9727 29.5203 30.2625 28.5203 31.3125C28.4203 31.1125 28.3103 30.9126 28.2003 30.7226C28.0272 30.3574 27.7735 30.0361 27.4583 29.7832C27.143 29.5303 26.7744 29.3524 26.3803 29.2627C26.0637 29.2225 25.742 29.2556 25.4403 29.3596C25.1386 29.4636 24.8649 29.6357 24.6403 29.8625C23.9514 30.5901 23.4382 31.4659 23.1403 32.4226Z" fill="#C1D22E"/>
<path fill-rule="evenodd" clip-rule="evenodd" d="M18.8998 52.002C18.8398 52.092 18.7797 52.1818 18.7197 52.2918C18.4523 52.7978 18.3475 53.3742 18.4197 53.9419C18.4671 54.5426 18.7216 55.108 19.1398 55.5418C19.2164 55.6291 19.3038 55.7066 19.3998 55.772V55.8418C19.2542 56.444 19.2236 57.0684 19.3098 57.6819C19.3368 58.136 19.4638 58.5785 19.6816 58.9778C19.8994 59.3771 20.2027 59.7234 20.5698 59.992C20.5436 60.2446 20.5436 60.4993 20.5698 60.752C20.5989 61.4469 20.8593 62.112 21.3098 62.6419C21.696 63.0308 22.1851 63.3014 22.7197 63.4219C24.0594 63.7193 25.4275 63.8701 26.7998 63.8719C28.8069 63.9356 30.8156 63.8119 32.7998 63.502C33.4905 63.4155 34.1496 63.1615 34.7197 62.762C34.9767 62.5306 35.183 62.2485 35.3259 61.9336C35.4687 61.6187 35.5449 61.2777 35.5498 60.9319C35.5566 60.5133 35.4888 60.0968 35.3497 59.702C35.4347 59.627 35.5149 59.5469 35.5898 59.462C36.0244 58.9426 36.3417 58.3353 36.5198 57.6819C36.6992 57.0681 36.6992 56.4156 36.5198 55.8018C36.7682 55.4118 36.9381 54.9772 37.0198 54.522C37.1775 53.8351 37.1217 53.1163 36.8598 52.462C36.7572 52.2154 36.6227 51.9835 36.4598 51.772C36.5811 51.5301 36.6622 51.27 36.6998 51.002C36.7753 50.2999 36.6057 49.5933 36.2197 49.002C35.8793 48.5 35.3947 48.1129 34.8298 47.8919C31.8298 46.5519 19.5697 46.732 18.4097 50.222C18.3315 50.4865 18.3216 50.7664 18.3811 51.0357C18.4406 51.305 18.5674 51.5551 18.7498 51.762C18.8109 51.8464 18.8778 51.9266 18.9498 52.002H18.8998ZM34.1998 50.1919C34.2792 50.3269 34.3302 50.4765 34.3497 50.6319C34.3523 50.6866 34.3409 50.7411 34.3164 50.7901C34.2918 50.8391 34.2552 50.8811 34.2098 50.9119C34.0184 51.0192 33.8614 51.1785 33.757 51.3714C33.6525 51.5643 33.605 51.7831 33.6198 52.002C33.6198 52.442 33.6198 52.1518 34.0198 52.3118C34.0198 52.3118 34.9498 52.7919 35.0198 53.1219C35.0905 53.4684 35.0264 53.8289 34.8406 54.1299C34.6549 54.4309 34.3613 54.6499 34.0198 54.742C33.5898 54.742 34.1498 55.142 34.3398 55.742C34.5298 56.342 34.6397 57.8819 33.9797 58.4419C33.8097 58.5919 32.4597 59.1019 32.9097 59.4419C34.2097 60.4419 34.7197 61.4418 27.9697 61.5818C26.6335 61.6229 25.2961 61.5594 23.9697 61.3919C23.6152 61.3247 23.2647 61.2379 22.9197 61.1319C22.8066 60.9886 22.7403 60.8141 22.7297 60.6319C22.7196 60.41 22.7679 60.1894 22.8698 59.992C22.9751 59.8333 23.037 59.6496 23.0493 59.4595C23.0616 59.2694 23.024 59.0795 22.94 58.9085C22.856 58.7375 22.7288 58.5916 22.5708 58.4852C22.4129 58.3787 22.2297 58.3155 22.0397 58.3018C21.8693 58.2523 21.7255 58.1374 21.6398 57.982C21.5296 57.802 21.458 57.601 21.4298 57.3919C21.2798 56.3919 21.8197 55.7219 21.7297 55.6019C21.6397 55.4819 20.3697 55.3019 20.3497 53.6919C20.2944 53.506 20.2944 53.3078 20.3497 53.1219C20.4283 52.9969 20.5302 52.8882 20.6498 52.8018H20.3698C20.3698 52.8018 21.6998 51.5518 20.6898 51.0918C20.5284 51.0163 20.3744 50.9259 20.2297 50.8218C20.1342 50.7519 20.044 50.675 19.9598 50.5918C20.0255 50.502 20.1028 50.4213 20.1898 50.3519C22.1898 48.8519 31.6598 48.682 33.9998 50.012C34.0704 50.0528 34.1373 50.0995 34.1998 50.1519V50.1919Z" fill="#C1D22E"/>
<path fill-rule="evenodd" clip-rule="evenodd" d="M20.8998 52.7931C22.1398 52.1931 30.0898 51.3632 33.0198 52.1932C33.3252 52.2096 33.6274 52.2633 33.9198 52.3531C34.2598 52.5531 34.7698 52.8433 34.9698 52.5033C35.0198 52.4209 35.0528 52.3293 35.0668 52.234C35.0808 52.1386 35.0755 52.0413 35.0513 51.9481C35.027 51.8548 34.9843 51.7674 34.9256 51.691C34.867 51.6146 34.7936 51.5508 34.7098 51.5033C32.0098 49.5033 23.5298 50.5833 20.0498 51.5033C19.9445 51.5556 19.8518 51.6297 19.7778 51.721C19.7037 51.8123 19.6502 51.9185 19.6208 52.0323C19.5914 52.1461 19.5868 52.265 19.6073 52.3807C19.6279 52.4964 19.673 52.6065 19.7398 52.7032C19.9998 53.2032 20.4498 53.0631 20.8998 52.7931Z" fill="#C1D22E"/>
<path fill-rule="evenodd" clip-rule="evenodd" d="M21.0898 55.8828C21.2098 55.8328 21.9098 55.8227 22.1498 55.7827C22.6198 55.7127 23.2398 55.6828 23.9498 55.6428C25.1298 55.5628 26.5498 55.5029 27.9498 55.4929C29.3498 55.4829 30.7698 55.4928 31.9498 55.5928C32.5198 55.5928 33.0498 55.5929 33.4998 55.6729C33.8002 55.6973 34.098 55.7474 34.3898 55.8228C34.5557 55.914 34.7493 55.9411 34.9337 55.8987C35.1182 55.8563 35.2806 55.7473 35.3898 55.5928C35.4362 55.5202 35.4663 55.4384 35.4782 55.3531C35.4901 55.2677 35.4835 55.181 35.4589 55.0984C35.4342 55.0159 35.392 54.9396 35.3353 54.8748C35.2785 54.81 35.2084 54.7582 35.1298 54.7229C34.5598 54.3329 33.5398 54.5528 32.2298 54.3228C30.8139 54.1042 29.3824 54.0041 27.9498 54.023C26.5238 54.003 25.0978 54.0698 23.6798 54.2229C22.5313 54.2913 21.3958 54.5028 20.2998 54.8528C19.8398 55.0828 19.9998 55.1628 20.2998 55.5728C20.5998 55.9828 20.6298 56.1528 21.0898 55.8828Z" fill="#C1D22E"/>
<path fill-rule="evenodd" clip-rule="evenodd" d="M21.5799 60.0714C21.7577 60.0316 21.9382 60.005 22.1199 59.9915C22.5999 59.9315 23.2099 59.9114 23.9199 59.8714C25.0999 59.8114 26.5199 59.7716 27.9199 59.7616C29.3199 59.7516 30.7499 59.7614 31.9199 59.8414C32.4999 59.8414 33.0199 59.8415 33.4699 59.9015C33.773 59.9129 34.0744 59.9532 34.3699 60.0216C34.5354 60.0989 34.7211 60.1221 34.9006 60.088C35.0801 60.0539 35.2443 59.964 35.3699 59.8314C35.5699 59.5914 35.4599 59.2915 35.1099 59.1515C34.1949 58.7355 33.2192 58.4687 32.2199 58.3614C30.819 58.2026 29.4096 58.1325 27.9999 58.1515C26.4899 58.1515 24.9999 58.1514 23.7299 58.3114C22.6862 58.3763 21.6565 58.5851 20.6699 58.9315C20.2099 59.1215 20.0599 59.5314 20.3199 59.8514C20.4896 60.0001 20.6968 60.0992 20.919 60.138C21.1413 60.1768 21.3699 60.1538 21.5799 60.0714Z" fill="#C1D22E"/>
<path fill-rule="evenodd" clip-rule="evenodd" d="M11.9002 6.2124C11.7468 6.0523 11.6611 5.83917 11.6611 5.61743C11.6611 5.3957 11.7468 5.18256 11.9002 5.02246C11.9782 4.94415 12.0709 4.882 12.173 4.8396C12.2751 4.7972 12.3846 4.77539 12.4952 4.77539C12.6057 4.77539 12.7152 4.7972 12.8173 4.8396C12.9194 4.882 13.0122 4.94415 13.0902 5.02246C17.3202 9.25246 17.5502 9.3623 17.5502 9.3623C17.6532 9.41786 17.7435 9.49444 17.8152 9.58691C17.8869 9.67939 17.9385 9.78583 17.9667 9.89941C17.9949 10.013 17.999 10.1311 17.9788 10.2463C17.9587 10.3616 17.9146 10.4716 17.8495 10.5688C17.7845 10.6661 17.6998 10.7487 17.601 10.8113C17.5021 10.8739 17.3912 10.9151 17.2755 10.9324C17.1597 10.9497 17.0416 10.9426 16.9288 10.9116C16.8159 10.8806 16.7108 10.8265 16.6202 10.7524C14.9702 9.32082 13.3949 7.80546 11.9002 6.2124Z" fill="#C1D22E"/>
<path fill-rule="evenodd" clip-rule="evenodd" d="M2.34967 14.503C2.25184 14.4538 2.16468 14.3857 2.09314 14.3028C2.0216 14.2199 1.9671 14.1236 1.93274 14.0196C1.89838 13.9156 1.88483 13.8058 1.89288 13.6966C1.90094 13.5874 1.93043 13.4807 1.97968 13.3829C2.02892 13.285 2.09699 13.1978 2.17993 13.1263C2.26287 13.0547 2.35907 13.0002 2.46307 12.9659C2.56708 12.9315 2.67684 12.918 2.78607 12.9261C2.8953 12.9341 3.00184 12.9638 3.09967 13.013C4.48967 13.703 9.46968 15.1729 9.47968 15.1729C9.69317 15.2366 9.87268 15.3825 9.97864 15.5784C10.0846 15.7744 10.1083 16.0043 10.0447 16.2178C9.98103 16.4313 9.8352 16.6109 9.63922 16.7169C9.44325 16.8228 9.21319 16.8464 8.99969 16.7828C6.74555 16.1368 4.52596 15.376 2.34967 14.503Z" fill="#C1D22E"/>
<path fill-rule="evenodd" clip-rule="evenodd" d="M23.0001 1.31169C22.9773 1.0896 23.0418 0.86748 23.1799 0.69206C23.3179 0.516641 23.5189 0.401733 23.7401 0.371748C23.9595 0.348939 24.1793 0.41228 24.3528 0.548506C24.5264 0.684731 24.6401 0.883146 24.6701 1.10173C24.9679 3.44459 25.4835 5.75473 26.2101 8.00187C26.2844 8.21014 26.2735 8.43926 26.1799 8.63957C26.0863 8.83988 25.9175 8.99505 25.7101 9.0717C25.4992 9.14579 25.2676 9.13395 25.0654 9.0385C24.8633 8.94304 24.7069 8.77164 24.6301 8.56169C23.8657 6.20008 23.3201 3.7732 23.0001 1.31169Z" fill="#C1D22E"/>
<path fill-rule="evenodd" clip-rule="evenodd" d="M33.8697 9.39233C33.7262 9.52872 33.5388 9.60929 33.3411 9.61963C33.1434 9.62997 32.9486 9.56941 32.7917 9.44873C32.6348 9.32805 32.5262 9.15537 32.4855 8.96167C32.4448 8.76797 32.4747 8.56596 32.5697 8.39233C34.3797 6.13233 36.0097 4.39233 36.0097 4.39233C36.1681 4.23957 36.3796 4.1543 36.5997 4.1543C36.8197 4.1543 37.0313 4.23957 37.1897 4.39233C37.2677 4.46952 37.3296 4.56133 37.3719 4.6626C37.4141 4.76387 37.4359 4.87268 37.4359 4.98242C37.4359 5.09216 37.4141 5.20073 37.3719 5.302C37.3296 5.40327 37.2677 5.49508 37.1897 5.57227C37.1897 5.57227 35.6097 7.22233 33.8697 9.39233Z" fill="#C1D22E"/>
<path fill-rule="evenodd" clip-rule="evenodd" d="M42.3202 15.1518C42.235 15.2365 42.1327 15.3019 42.0202 15.3437C41.9076 15.3855 41.7873 15.4029 41.6676 15.3943C41.5478 15.3857 41.4313 15.3514 41.3258 15.2939C41.2204 15.2365 41.1285 15.1572 41.0563 15.0613C40.9841 14.9653 40.9334 14.8548 40.9075 14.7375C40.8816 14.6203 40.8811 14.4988 40.9061 14.3813C40.9311 14.2639 40.981 14.1532 41.0525 14.0566C41.1239 13.9601 41.2152 13.88 41.3202 13.8218C42.6702 12.8218 49.3802 8.75194 49.4002 8.74194C49.5898 8.62922 49.8164 8.59624 50.0302 8.65063C50.244 8.70501 50.4274 8.8421 50.5401 9.03173C50.6528 9.22136 50.6856 9.44807 50.6313 9.66186C50.5769 9.87565 50.4398 10.0592 50.2501 10.1719C50.2501 10.1719 43.6302 14.1518 42.3202 15.1518Z" fill="#C1D22E"/>
<path fill-rule="evenodd" clip-rule="evenodd" d="M47.58 21.2419C47.4699 21.2668 47.3558 21.2691 47.2447 21.249C47.1336 21.2288 47.0277 21.1865 46.9334 21.1245C46.839 21.0625 46.7582 20.9821 46.6956 20.8881C46.633 20.7942 46.59 20.6886 46.5691 20.5776C46.5483 20.4666 46.55 20.3527 46.5742 20.2424C46.5985 20.1321 46.6446 20.0278 46.7101 19.9357C46.7755 19.8437 46.8588 19.7658 46.955 19.7067C47.0512 19.6476 47.1583 19.6085 47.27 19.5917L52.01 18.7119C52.1177 18.6915 52.2283 18.6924 52.3355 18.7148C52.4428 18.7372 52.5447 18.7807 52.6352 18.8425C52.7258 18.9042 52.8032 18.9832 52.8632 19.0749C52.9233 19.1666 52.9646 19.2692 52.985 19.3769C53.0053 19.4846 53.0042 19.5951 52.9818 19.7023C52.9594 19.8096 52.9162 19.9116 52.8544 20.0022C52.7926 20.0927 52.7137 20.1702 52.622 20.2302C52.5303 20.2902 52.4277 20.3314 52.32 20.3518L47.58 21.2419Z" fill="#C1D22E"/>
<path fill-rule="evenodd" clip-rule="evenodd" d="M5.30991 23.1533C5.53011 23.1737 5.73371 23.279 5.87747 23.447C6.02124 23.6151 6.09388 23.8325 6.07993 24.0532C6.07237 24.1632 6.04297 24.2706 5.99344 24.3691C5.94391 24.4677 5.8752 24.5555 5.79141 24.6272C5.70763 24.6989 5.6104 24.7532 5.5054 24.7869C5.40041 24.8206 5.28976 24.8328 5.1799 24.8232L1.32993 24.5332C1.12082 24.5006 0.931694 24.3906 0.800387 24.2246C0.669079 24.0586 0.605251 23.8492 0.621676 23.6382C0.6381 23.4272 0.733539 23.2301 0.888949 23.0864C1.04436 22.9428 1.2483 22.8631 1.45993 22.8633L5.30991 23.1533Z" fill="#C1D22E"/>
<path fill-rule="evenodd" clip-rule="evenodd" d="M18.3097 18.0131C18.2217 17.9842 18.1405 17.9372 18.0715 17.8754C18.0025 17.8136 17.9471 17.7381 17.9088 17.6537C17.8704 17.5694 17.8499 17.478 17.8487 17.3854C17.8474 17.2927 17.8654 17.2007 17.9015 17.1154C17.9376 17.03 17.991 16.9532 18.0583 16.8895C18.1256 16.8259 18.2054 16.777 18.2927 16.7457C18.3799 16.7145 18.4726 16.7015 18.5651 16.7079C18.6575 16.7143 18.7476 16.7398 18.8297 16.7829C25.6797 19.7129 28.9897 17.903 31.1997 16.683L31.7997 16.3629C31.8778 16.3222 31.9632 16.2974 32.051 16.2897C32.1387 16.282 32.2272 16.2915 32.3112 16.318C32.3953 16.3445 32.4733 16.3874 32.5408 16.444C32.6083 16.5006 32.664 16.57 32.7047 16.6481C32.7454 16.7262 32.7703 16.8115 32.778 16.8993C32.7857 16.9871 32.7761 17.0755 32.7496 17.1596C32.7232 17.2436 32.6804 17.3215 32.6238 17.3891C32.5672 17.4566 32.4978 17.5122 32.4197 17.5529L31.8497 17.8629C29.4097 19.2029 25.7497 21.2031 18.3097 18.0131Z" fill="#C1D22E"/>
</svg>
