<svg width="10" height="10" viewBox="0 0 10 10" fill="none" xmlns="http://www.w3.org/2000/svg">
<path d="M9.99901 4.99999C9.99901 5.9887 9.70585 6.9552 9.15661 7.77731C8.60736 8.59942 7.82669 9.24022 6.91329 9.61869C5.99989 9.99716 4.99479 10.0963 4.02504 9.90361C3.0553 9.7109 2.16447 9.23498 1.46518 8.53603C0.765892 7.83708 0.289543 6.94648 0.0963624 5.97683C-0.0968186 5.00718 0.00184229 4.00203 0.379871 3.08844C0.757899 2.17486 1.39832 1.39388 2.22017 0.844233C3.04201 0.294589 4.00837 0.000969058 4.99708 0.000488871C5.65383 0.000169906 6.30421 0.129244 6.91105 0.38035C7.5179 0.631455 8.06933 0.999671 8.53383 1.46395C8.99833 1.92823 9.36681 2.47947 9.61821 3.0862C9.86961 3.69293 9.99901 4.34324 9.99901 4.99999Z" fill="#D18915"/>
<path d="M9.82514 4.99936C9.82514 5.95349 9.54224 6.88619 9.0122 7.67956C8.48217 8.47292 7.7288 9.0913 6.84735 9.45654C5.9659 9.82178 4.99594 9.91747 4.06011 9.73151C3.12428 9.54554 2.2646 9.08628 1.58976 8.41178C0.914917 7.73728 0.45522 6.87783 0.268784 5.94209C0.0823489 5.00636 0.177548 4.03635 0.542344 3.15471C0.90714 2.27308 1.52515 1.5194 2.31825 0.988965C3.11134 0.458531 4.04391 0.175163 4.99803 0.174683C5.63182 0.174364 6.25947 0.298923 6.84511 0.541243C7.43074 0.783563 7.9629 1.13889 8.41117 1.58693C8.85944 2.03498 9.21503 2.56696 9.45765 3.15247C9.70026 3.73799 9.82514 4.36557 9.82514 4.99936Z" fill="#FCCB37"/>
<g style="mix-blend-mode:screen" opacity="0.2">
<path d="M9.99803 4.99999C9.99787 5.65664 9.86835 6.30682 9.61688 6.9134C9.3654 7.51999 8.9969 8.0711 8.53242 8.53525C8.06793 8.9994 7.51656 9.3675 6.90979 9.61853C6.30302 9.86956 5.65274 9.9986 4.99609 9.99828V0.000488871C5.65284 0.000169906 6.30322 0.129244 6.91007 0.38035C7.51692 0.631455 8.06834 0.999671 8.53285 1.46395C8.99735 1.92823 9.36583 2.47947 9.61723 3.0862C9.86863 3.69293 9.99803 4.34324 9.99803 4.99999Z" fill="white"/>
</g>
<path d="M8.59687 4.99911C8.59663 5.71043 8.38551 6.40571 7.9902 6.99706C7.59489 7.58841 7.03313 8.0493 6.37594 8.32145C5.71874 8.5936 4.99562 8.66481 4.29797 8.52607C3.60031 8.38733 2.95945 8.04486 2.45639 7.54197C1.95333 7.03908 1.61065 6.39833 1.47167 5.70073C1.3327 5.00312 1.40366 4.27997 1.67559 3.62268C1.94752 2.9654 2.40822 2.40349 2.99944 2.00798C3.59066 1.61247 4.28587 1.40112 4.99718 1.40064C5.46989 1.40032 5.93802 1.49317 6.37482 1.67388C6.81162 1.85459 7.20852 2.11962 7.54283 2.45382C7.87714 2.78801 8.1423 3.18483 8.32316 3.62157C8.50402 4.0583 8.59703 4.52641 8.59687 4.99911Z" fill="#D18915"/>
<g style="mix-blend-mode:screen" opacity="0.2">
<path d="M8.59579 4.99911C8.59579 5.47172 8.50266 5.93969 8.32173 6.37628C8.1408 6.81288 7.8756 7.20955 7.54131 7.54362C7.20702 7.87769 6.81017 8.14261 6.37345 8.32324C5.93673 8.50388 5.4687 8.5967 4.99609 8.59638V1.40064C5.4688 1.40032 5.93693 1.49317 6.37373 1.67388C6.81053 1.85459 7.20743 2.11962 7.54174 2.45382C7.87605 2.78801 8.14122 3.18483 8.32208 3.62157C8.50294 4.0583 8.59595 4.52641 8.59579 4.99911Z" fill="white"/>
</g>
</svg>
