<svg width="139" height="133" viewBox="0 0 139 133" fill="none" xmlns="http://www.w3.org/2000/svg">
<path d="M132.581 82.4481C131.701 82.4481 130.371 82.4482 128.671 82.5282C128.751 81.7982 128.821 80.8382 128.871 79.5282C128.991 76.6382 129.02 68.4583 128.26 57.6483C127.959 51.6365 127.204 45.6559 126.001 39.7582C124.541 33.4182 121.811 26.7582 117.001 21.5682C114.59 18.946 111.638 16.8784 108.351 15.5082C105.151 14.1866 101.722 13.5071 98.2605 13.5082C91.9232 13.4702 85.7758 15.6692 80.9005 19.7181C78.8857 21.4535 77.1607 23.4993 75.7905 25.7782C74.6504 27.6288 73.6477 29.5605 72.7905 31.558C71.6924 34.0013 70.7538 36.5132 69.9806 39.078C69.6506 40.308 69.4305 41.1983 69.3105 41.8983C68.4605 39.1383 67.5406 36.2983 66.5306 33.3783C66.2306 32.5383 65.9305 31.698 65.6105 30.848C65.5968 30.7301 65.5557 30.6175 65.4905 30.5184C64.168 26.9076 62.6045 23.3894 60.8105 19.9881C58.429 15.3575 55.3004 11.1509 51.5505 7.53794C49.592 5.68831 47.424 4.07445 45.0906 2.72837C42.6685 1.32476 39.9885 0.423102 37.2105 0.0779766C34.3438 -0.214583 31.4532 0.319849 28.8805 1.61802C26.4594 2.8698 24.2329 4.46669 22.2705 6.35825C18.4809 9.9435 15.3232 14.1423 12.9305 18.7782C8.17052 27.7782 6.36056 37.3481 5.41056 45.6781C4.46056 54.0081 4.31053 61.4081 4.19053 67.2181C4.07053 73.0281 4.19051 77.2979 4.29051 79.5379C4.45051 82.3679 4.61055 84.1083 4.77055 85.1883C0.510547 85.6683 -0.0194723 86.0181 0.00052769 86.4081C0.0205277 86.7981 0.500508 86.9882 5.23051 87.0282C6.77051 87.0282 9.73052 86.968 13.7405 86.848C17.7505 86.728 22.8206 86.768 28.5906 86.848C38.7706 86.978 51.1405 87.4983 63.8205 87.6483L63.7305 87.7484C63.3163 88.3368 63.0177 88.9982 62.8506 89.6981C62.6628 90.7309 62.6324 91.7861 62.7605 92.828C62.9238 93.9603 62.9673 95.107 62.8905 96.2484C62.7151 97.5145 62.2346 98.7188 61.4905 99.7582C60.6177 100.954 59.5249 101.972 58.2705 102.758C56.8549 103.641 55.3044 104.286 53.6805 104.668C50.2805 105.548 46.4105 105.668 42.4305 106.038C38.5016 106.404 34.6191 107.161 30.8406 108.298C27.3693 109.345 24.0927 110.953 21.1405 113.058C18.8133 114.701 16.784 116.731 15.1405 119.058C14.1761 120.378 13.4206 121.838 12.9006 123.388C12.619 124.188 12.4802 125.031 12.4905 125.878C12.4905 126.338 12.6705 126.488 12.8605 126.538C13.0505 126.588 13.1905 126.538 13.4505 126.168C13.7105 125.798 14.0305 125.168 14.6305 124.088C15.317 122.785 16.1203 121.546 17.0306 120.388C18.6359 118.364 20.5412 116.597 22.6805 115.148C25.4493 113.303 28.4846 111.893 31.6805 110.968C35.3003 109.93 39.0102 109.237 42.7605 108.898C46.5705 108.488 50.5805 108.408 54.4205 107.368C56.3297 106.882 58.1445 106.081 59.7905 104.998C61.3366 103.973 62.657 102.642 63.6705 101.088C64.6121 99.6759 65.1831 98.0493 65.3305 96.3583C65.3736 95.0404 65.2662 93.7217 65.0105 92.4281C64.8578 91.6209 64.814 90.7972 64.8805 89.9784C64.954 89.5083 65.0919 89.0503 65.2905 88.618C65.4601 88.2468 65.6936 87.9083 65.9805 87.618H71.9806C71.6552 88.0031 71.3951 88.4389 71.2105 88.9081C70.7422 90.2424 70.6218 91.6743 70.8606 93.0682C71.3203 95.277 71.99 97.437 72.8606 99.5184C73.7753 101.906 73.8703 104.531 73.1306 106.978C72.3149 109.673 70.5348 111.973 68.1306 113.438C65.5172 114.927 62.7337 116.096 59.8406 116.918C57.0298 117.755 54.3404 118.955 51.8406 120.488C49.7952 121.811 48.1467 123.663 47.0705 125.848C46.4411 127.118 46.1256 128.521 46.1506 129.938C46.1537 130.677 46.3614 131.4 46.7505 132.028C46.9905 132.368 47.1905 132.408 47.3705 132.348C47.5505 132.288 47.6705 132.188 47.7305 131.848C47.7905 131.508 47.8405 130.938 48.0105 130.018C48.21 128.913 48.5991 127.851 49.1606 126.878C50.1666 125.149 51.5987 123.707 53.3205 122.688C55.6791 121.366 58.1867 120.328 60.7905 119.598C63.9429 118.756 66.9694 117.498 69.7905 115.858C71.2721 114.911 72.581 113.716 73.6605 112.328C74.6892 110.939 75.4551 109.373 75.9205 107.708C76.3714 106.134 76.5407 104.492 76.4205 102.858C76.3011 101.383 75.9641 99.9341 75.4205 98.558C74.5197 96.643 73.7708 94.6605 73.1805 92.6283C72.9563 91.5633 72.9089 90.4684 73.0405 89.388C73.1605 88.548 73.3106 88.0784 73.3406 87.7484C73.3406 87.6984 73.3406 87.6583 73.3406 87.6083C75.5206 87.6083 77.6805 87.5681 79.8205 87.4881L90.3205 87.0082C97.2005 86.6882 103.661 86.2483 109.441 85.8983C121.001 85.1883 129.731 84.5781 132.791 84.2181C137.301 83.6881 138.141 83.3281 138.111 82.9281C138.081 82.5281 137.321 82.4281 132.581 82.4481ZM76.3406 30.5379C76.3406 30.2479 76.3406 30.0084 76.3406 29.7684C76.8206 28.8984 77.3405 27.9982 77.9305 27.0882C79.215 25.0606 80.8152 23.2513 82.6705 21.7284C87.1097 18.1796 92.6481 16.2907 98.3305 16.388C101.422 16.4015 104.48 17.0234 107.331 18.2181C110.24 19.4405 112.844 21.2876 114.961 23.6283C118.874 28.1071 121.622 33.4827 122.961 39.2782C122.695 39.7393 122.387 40.1743 122.041 40.578C121.177 41.6106 119.963 42.2878 118.631 42.4784C117.601 42.6058 116.557 42.4248 115.631 41.9583C114.476 41.2435 113.479 40.301 112.701 39.1883C112.101 38.4761 111.431 37.8262 110.701 37.2484C109.757 36.455 108.542 36.059 107.312 36.1449C106.083 36.2307 104.935 36.7915 104.111 37.7083C103.397 38.4662 102.769 39.3011 102.241 40.1981C101.241 41.8281 100.161 43.3181 99.0006 43.4681C97.8406 43.6181 96.4905 42.7184 95.6705 41.2684C95.2451 40.4746 94.929 39.6269 94.7306 38.7484C94.5529 38.1235 94.2796 37.5295 93.9205 36.9881C93.4668 36.3373 92.8299 35.8361 92.0906 35.5482C91.4205 35.3289 90.7109 35.2564 90.0104 35.3358C89.3098 35.4152 88.6345 35.6445 88.0305 36.0082C86.9951 36.5717 86.097 37.3569 85.4005 38.308C84.1905 39.978 83.2906 41.4684 82.2105 42.0184C81.6613 42.2592 81.0558 42.3415 80.4621 42.2567C79.8685 42.1719 79.3104 41.9229 78.8506 41.5379C76.6806 40.0379 76.3705 37.3084 76.2905 35.2284C76.2105 33.1484 76.3806 31.3979 76.3406 30.5379ZM9.72056 38.4681C9.80056 37.5881 9.94052 36.868 9.99052 36.348C10.0786 35.685 10.122 35.0168 10.1205 34.348C11.3013 29.3629 13.1019 24.5455 15.4805 20.0082C17.7639 15.6812 20.7514 11.7645 24.3205 8.41831C26.084 6.73472 28.0854 5.31939 30.2605 4.21811C32.3647 3.16201 34.7329 2.74822 37.0705 3.02817C41.7705 3.58817 46.1505 6.48819 49.7005 9.79819C53.2177 13.2013 56.1593 17.1528 58.4106 21.4984C60.2923 25.1222 61.939 28.8629 63.3406 32.6981C63.2306 32.7981 63.1506 32.9082 63.0306 33.0282C62.0086 34.0484 60.6427 34.6506 59.2002 34.7171C57.7576 34.7837 56.3421 34.3098 55.2305 33.388C54.2305 32.578 53.5405 31.0482 52.3305 29.2582C51.6367 28.2475 50.6832 27.4426 49.5705 26.9281C48.9058 26.6293 48.1777 26.4989 47.4505 26.5482C46.6948 26.6218 45.9711 26.8903 45.3506 27.328C44.344 28.1115 43.5071 29.0917 42.8905 30.2083L41.1905 33.078C40.6777 33.9609 40.045 34.769 39.3105 35.4784C38.6208 36.094 37.7838 36.5209 36.8805 36.7181C35.0405 37.0781 34.0005 36.1881 33.3705 33.9881C33.0553 32.7395 32.613 31.5264 32.0505 30.368C31.6784 29.6807 31.1796 29.0702 30.5805 28.5682C29.9585 28.0641 29.2356 27.6994 28.4606 27.4984C27.0677 27.1771 25.6142 27.2345 24.2512 27.6654C22.8882 28.0962 21.6657 28.8846 20.7106 29.9481C17.1306 33.9481 17.0905 38.9482 15.3005 41.5682C14.9799 42.1319 14.5138 42.5993 13.9509 42.9212C13.388 43.2432 12.749 43.4078 12.1006 43.3983C11.604 43.2897 11.1473 43.0449 10.7818 42.6917C10.4162 42.3385 10.1561 41.8909 10.0306 41.3983C9.71465 40.4559 9.60884 39.4557 9.72056 38.4681ZM68.8706 84.808C54.5006 84.808 40.0905 84.2184 28.4905 84.2284C22.6905 84.2284 17.5905 84.3082 13.5605 84.5682C10.1805 84.7782 7.56055 84.9683 5.90055 85.1283C5.99055 84.0183 6.07054 82.2581 6.14054 79.4481C6.21054 77.2181 6.26052 72.9583 6.49052 67.1883C6.72052 61.4183 7.06056 54.098 8.03056 45.888C8.14056 45.078 8.25052 44.2581 8.37052 43.4281C8.55567 43.7855 8.7804 44.1209 9.04051 44.4281C9.74923 45.2327 10.7199 45.7608 11.7806 45.9183C12.9033 46.0061 14.0285 45.7841 15.0337 45.2762C16.0388 44.7684 16.8852 43.9938 17.4805 43.0379C18.7605 41.1779 19.2405 39.0383 19.9305 37.1283C20.4875 35.1969 21.4564 33.409 22.7705 31.888C23.3905 31.2254 24.1708 30.734 25.0361 30.4608C25.9013 30.1875 26.8225 30.1416 27.7106 30.328C28.0998 30.4396 28.4607 30.6333 28.7694 30.8954C29.078 31.1575 29.3273 31.482 29.5005 31.848C29.9445 32.8604 30.3057 33.9076 30.5805 34.9784C30.9608 36.4313 31.7817 37.7306 32.9305 38.6981C33.585 39.1667 34.3342 39.4865 35.1253 39.6351C35.9165 39.7837 36.7306 39.7572 37.5105 39.558C38.9109 39.2304 40.2005 38.5407 41.2505 37.558C42.1723 36.6746 42.9636 35.6644 43.6006 34.558C44.1706 33.558 44.7306 32.6081 45.2806 31.6581C45.6926 30.8915 46.2495 30.2122 46.9205 29.6581C47.148 29.4887 47.4181 29.3859 47.7007 29.3612C47.9832 29.3365 48.2671 29.3912 48.5205 29.5184C49.1865 29.8506 49.7576 30.346 50.1805 30.9583C51.1805 32.2783 52.0105 34.2284 53.6905 35.4784C55.1233 36.5768 56.8854 37.1582 58.6905 37.1283C60.0541 37.1252 61.3902 36.7444 62.5505 36.0282C63.1061 35.6751 63.6137 35.2518 64.0605 34.7684C65.5605 39.0084 66.8405 43.168 68.0605 47.058C70.1993 53.8391 71.9917 60.725 73.4305 67.6883C74.5705 73.3083 75.0906 77.5083 75.3706 79.6883C75.6906 82.0283 75.8905 83.6882 76.0505 84.8382C73.6772 84.8182 71.2839 84.808 68.8706 84.808ZM109.15 83.348C103.38 83.608 96.8805 83.9784 90.0505 84.2484L79.5906 84.6883H77.3005C77.3764 82.8852 77.3565 81.0792 77.2406 79.2782C76.9723 75.1507 76.4547 71.0434 75.6905 66.9784C74.3697 59.9045 72.6537 52.91 70.5505 46.0282C70.3205 45.2682 70.0906 44.4881 69.8506 43.7181C70.6069 42.4203 71.2396 41.0542 71.7406 39.638C72.1806 38.638 72.9305 36.738 74.0405 34.328C74.0405 34.618 73.9806 34.8984 73.9706 35.2284C73.905 36.6062 74.0534 37.9858 74.4105 39.3182C74.6252 40.1437 74.9623 40.9323 75.4105 41.6581C75.931 42.43 76.5805 43.1065 77.3305 43.6581C78.152 44.2882 79.1119 44.7135 80.1306 44.8983C81.2805 45.1002 82.465 44.9174 83.5006 44.3783C85.6306 43.2483 86.5905 41.2883 87.6905 39.9383C88.1457 39.3185 88.7377 38.8121 89.4205 38.4583C89.6621 38.3022 89.9335 38.1977 90.2174 38.1512C90.5013 38.1048 90.7917 38.1173 91.0705 38.1883C91.4205 38.3383 91.7105 38.7283 91.9605 39.6283C92.2186 40.7219 92.6328 41.7729 93.1905 42.7484C93.8028 43.8158 94.6511 44.729 95.6705 45.4183C96.2461 45.8205 96.8979 46.1005 97.5858 46.2416C98.2737 46.3826 98.9831 46.3814 99.6705 46.2381C100.947 45.9306 102.083 45.2055 102.9 44.1781C103.561 43.3709 104.159 42.5151 104.691 41.618C105.104 40.896 105.601 40.2248 106.171 39.618C106.537 39.1859 107.057 38.9136 107.621 38.8582C108.621 38.7383 109.691 39.7481 110.741 40.9481C111.781 42.2904 113.093 43.3979 114.591 44.1981C115.991 44.8287 117.553 45.0104 119.061 44.7181C120.208 44.5042 121.281 43.994 122.171 43.2381C122.713 42.7949 123.173 42.26 123.53 41.6581C124.569 47.0235 125.284 52.4469 125.671 57.8983C126.591 68.5983 126.811 76.728 127.041 79.598C127.151 80.858 127.241 81.8179 127.331 82.5379C122.941 82.7279 116.65 83.028 109.15 83.348Z" fill="#3A3A3A"/>
<path d="M63.3003 32.687C63.1903 32.787 63.1103 32.8971 62.9903 33.0171C61.9683 34.0373 60.6025 34.6395 59.16 34.7061C57.7174 34.7726 56.3019 34.2987 55.1903 33.377C54.1903 32.567 53.5003 31.0371 52.2903 29.2471C51.5964 28.2365 50.643 27.4315 49.5303 26.917C48.8655 26.6182 48.1375 26.4874 47.4103 26.5366C46.6545 26.6102 45.9308 26.8793 45.3103 27.3169C44.3038 28.1004 43.4669 29.0801 42.8503 30.1968L41.1503 33.0669C40.6374 33.9498 40.0048 34.7574 39.2703 35.4668C38.5806 36.0824 37.7435 36.5098 36.8403 36.707C35.0003 37.067 33.9603 36.177 33.3303 33.977C33.0151 32.7285 32.5728 31.5153 32.0103 30.3569C31.6381 29.6696 31.1393 29.0586 30.5403 28.5566C29.9182 28.0525 29.1953 27.6878 28.4203 27.4868C27.0274 27.1656 25.5739 27.2234 24.211 27.6543C22.848 28.0852 21.6254 28.8735 20.6703 29.937C17.0903 33.937 17.0503 38.9366 15.2603 41.5566C14.9397 42.1203 14.4736 42.5877 13.9107 42.9097C13.3478 43.2316 12.7087 43.3963 12.0603 43.3867C11.5637 43.2782 11.1071 43.0339 10.7415 42.6807C10.3759 42.3275 10.1158 41.8793 9.99028 41.3867C9.69508 40.4571 9.60304 39.4751 9.72032 38.5068C9.80032 37.6268 9.94028 36.9067 9.99028 36.3867C10.0784 35.7237 10.1218 35.0555 10.1203 34.3867C11.301 29.4016 13.1017 24.5842 15.4803 20.0469C17.7636 15.7199 20.7511 11.8033 24.3203 8.45703C26.0837 6.77344 28.0851 5.35811 30.2603 4.25683C32.3603 3.18699 34.7288 2.75922 37.0703 3.02685C41.7703 3.58685 46.1503 6.48687 49.7003 9.79687C53.2175 13.2 56.1591 17.1515 58.4103 21.4971C60.278 25.1186 61.9114 28.8562 63.3003 32.687Z" fill="#3A3A3A"/>
<path d="M122.93 39.2765C122.665 39.7376 122.357 40.1727 122.01 40.5763C121.147 41.609 119.933 42.2862 118.6 42.4767C117.571 42.6041 116.527 42.4231 115.6 41.9567C114.446 41.2419 113.449 40.2994 112.67 39.1867C112.071 38.4745 111.401 37.8246 110.67 37.2467C109.727 36.4533 108.512 36.0574 107.282 36.1432C106.053 36.2291 104.904 36.7899 104.08 37.7067C103.366 38.4646 102.739 39.2995 102.21 40.1965C101.21 41.8265 100.13 43.3165 98.9704 43.4665C97.8104 43.6165 96.4604 42.7168 95.6404 41.2668C95.215 40.4729 94.8989 39.6252 94.7004 38.7467C94.5228 38.1218 94.2495 37.5279 93.8904 36.9865C93.4367 36.3356 92.7997 35.8344 92.0604 35.5465C91.3903 35.3272 90.6809 35.2548 89.9803 35.3341C89.2798 35.4135 88.6045 35.6428 88.0005 36.0065C86.9651 36.57 86.067 37.3552 85.3705 38.3063C84.1605 39.9763 83.2604 41.4668 82.1804 42.0168C81.6312 42.2576 81.0256 42.3399 80.432 42.255C79.8383 42.1702 79.2802 41.9212 78.8204 41.5363C76.6504 40.0363 76.3404 37.3067 76.2604 35.2267C76.1804 33.1467 76.3504 31.3963 76.2604 30.5363C76.2604 30.2463 76.2604 30.0068 76.2604 29.7668C76.7404 28.8968 77.2604 27.9966 77.8504 27.0866C79.135 25.0589 80.7351 23.2496 82.5904 21.7267C87.0296 18.178 92.568 16.2891 98.2505 16.3864C101.342 16.3998 104.4 17.0217 107.25 18.2165C110.16 19.4389 112.764 21.286 114.88 23.6266C118.812 28.1003 121.578 33.4762 122.93 39.2765Z" fill="#3A3A3A"/>
<path d="M16.4603 59.6473C17.2003 58.9373 18.2303 52.4372 17.6003 51.5672C17.4793 51.4205 17.3262 51.3034 17.1528 51.2254C16.9794 51.1474 16.7904 51.1103 16.6003 51.117C16.4437 51.0783 16.28 51.0782 16.1233 51.1165C15.9666 51.1548 15.8215 51.2307 15.7003 51.3372C14.9603 52.0472 13.9403 58.5473 14.5703 59.4173C14.6883 59.5688 14.8403 59.6901 15.014 59.7718C15.1878 59.8534 15.3784 59.8929 15.5703 59.887C15.727 59.9213 15.8897 59.9176 16.0446 59.8758C16.1995 59.834 16.3421 59.7557 16.4603 59.6473Z" fill="#3A3A3A"/>
<path d="M17.1703 71.3867C16.8945 71.2598 16.5826 71.2351 16.2903 71.3169C15.8903 71.4569 15.2903 72.6668 15.1903 73.9868C15.0903 75.3068 15.4103 76.6169 15.8303 76.7969C16.1544 76.9081 16.5063 76.9081 16.8303 76.7969C17.1329 76.7562 17.4156 76.6236 17.6403 76.417C17.9279 75.6949 18.0739 74.9242 18.0703 74.147C18.1703 73.147 18.3203 72.2069 18.0703 71.8769C17.818 71.6382 17.5078 71.4691 17.1703 71.3867Z" fill="#3A3A3A"/>
<path d="M31.3505 59.5178C32.0705 58.3578 32.8904 48.3674 32.2304 47.1174C32.1397 46.9347 31.9953 46.7841 31.8166 46.6858C31.6378 46.5875 31.4333 46.5463 31.2304 46.5676C31.0533 46.5361 30.8708 46.5626 30.7103 46.6438C30.5498 46.7249 30.42 46.8565 30.3405 47.0178C29.6205 48.1778 28.8004 58.1677 29.4604 59.4177C29.5466 59.606 29.689 59.763 29.8681 59.8669C30.0472 59.9708 30.2542 60.0165 30.4604 59.9978C30.6405 60.022 30.8236 59.9883 30.9835 59.9021C31.1433 59.8158 31.2718 59.6816 31.3505 59.5178Z" fill="#3A3A3A"/>
<path d="M32.4306 70.8171C32.1641 70.553 31.8057 70.4026 31.4306 70.3972C31.2755 70.3559 31.1128 70.3521 30.9561 70.3869C30.7995 70.4218 30.6536 70.4938 30.5306 70.5969C30.1606 70.9169 29.7506 72.6673 29.8106 74.4573C29.8706 76.2473 30.3506 77.9773 30.8106 78.2473C30.9625 78.3296 31.1299 78.379 31.3021 78.3928C31.4744 78.4066 31.6475 78.3839 31.8106 78.3269C31.9674 78.3039 32.1174 78.2477 32.2503 78.1614C32.3832 78.0751 32.4958 77.9608 32.5806 77.8269C32.7687 76.6597 32.8023 75.4731 32.6806 74.2971C32.7106 72.7471 32.7406 71.1971 32.4306 70.8171Z" fill="#3A3A3A"/>
<path d="M47.5205 44.4163C47.3493 44.4081 47.1793 44.4485 47.0305 44.5335C46.8817 44.6186 46.7602 44.7446 46.6804 44.8963C46.1104 45.9463 46.5205 54.2561 47.3305 55.1961C47.4537 55.335 47.6099 55.4408 47.7846 55.5037C47.9593 55.5666 48.147 55.5844 48.3305 55.556C48.5008 55.5488 48.6664 55.4983 48.8117 55.409C48.957 55.3197 49.0771 55.1949 49.1605 55.0462C49.7305 53.9962 49.3204 45.6864 48.5104 44.7464C48.3868 44.6122 48.2311 44.5116 48.0579 44.4539C47.8848 44.3962 47.6999 44.3832 47.5205 44.4163Z" fill="#3A3A3A"/>
<path d="M51.9605 70.8078C51.8214 70.6968 51.6602 70.6175 51.4877 70.5744C51.3151 70.5313 51.1353 70.5253 50.9605 70.5578C50.7986 70.5474 50.6366 70.577 50.4885 70.6432C50.3404 70.7094 50.2107 70.8106 50.1104 70.9382C49.8104 71.3482 49.7204 73.2278 49.9504 75.0778C50.1804 76.9278 50.6804 78.7378 51.1204 79.0778C51.275 79.1759 51.4498 79.2377 51.6317 79.2585C51.8135 79.2793 51.9977 79.2587 52.1704 79.1979C52.3313 79.18 52.4854 79.1235 52.6195 79.0329C52.7536 78.9423 52.8637 78.8204 52.9404 78.6779C53.1804 78.2279 53.0204 76.4579 52.8204 74.6779C52.6204 72.8979 52.3505 71.1678 51.9605 70.8078Z" fill="#3A3A3A"/>
<path d="M60.2102 51.377C60.065 51.2796 59.9004 51.2147 59.7278 51.187C59.5551 51.1594 59.3786 51.1697 59.2102 51.2168C59.0487 51.2284 58.8924 51.2789 58.7548 51.3643C58.6172 51.4496 58.5024 51.5675 58.4202 51.7071C58.1702 52.1571 58.2602 53.9967 58.4202 55.8267C58.5802 57.6567 58.7102 59.4667 59.0802 59.8267C59.2131 59.9512 59.371 60.0464 59.5435 60.105C59.7159 60.1636 59.899 60.1848 60.0802 60.167C60.2429 60.1802 60.4063 60.1534 60.5562 60.0889C60.7061 60.0244 60.838 59.9241 60.9402 59.7969C61.2702 59.3869 61.4502 57.4469 61.3102 55.5069C61.1702 53.5669 60.6402 51.707 60.2102 51.377Z" fill="#3A3A3A"/>
<path d="M66.2603 67.938C65.953 67.7773 65.5985 67.7308 65.2603 67.8077C65.1033 67.8079 64.9483 67.8432 64.8065 67.9107C64.6647 67.9781 64.5396 68.0761 64.4403 68.1978C64.1503 68.5678 64.1603 70.148 64.4403 71.688C64.7203 73.228 65.2303 74.6878 65.6803 74.9478C66.0025 75.07 66.3582 75.07 66.6803 74.9478C66.8346 74.9177 66.9813 74.8572 67.1118 74.7696C67.2423 74.682 67.354 74.5694 67.4403 74.438C67.5999 73.3231 67.5353 72.1873 67.2503 71.0977C67.0003 69.6477 66.6703 68.208 66.2603 67.938Z" fill="#3A3A3A"/>
<path d="M84.8104 63.2569C84.9824 63.2516 85.1496 63.198 85.2927 63.1026C85.4359 63.0071 85.5495 62.8736 85.6205 62.7168C85.8748 61.0426 85.9885 59.35 85.9605 57.6568C86.0405 55.3968 86.2505 53.147 85.9605 52.607C85.8725 52.4402 85.742 52.2993 85.5822 52.1992C85.4224 52.0991 85.2389 52.043 85.0504 52.0366C84.8851 51.9856 84.7084 51.9853 84.5427 52.0352C84.3771 52.0851 84.2301 52.1831 84.1205 52.3169C83.7105 52.7569 83.1204 55.1467 83.0504 57.5967C82.9804 60.0467 83.3205 62.4768 83.7505 62.9468C83.8823 63.09 84.0505 63.1944 84.2373 63.249C84.4241 63.3037 84.6223 63.3065 84.8104 63.2569Z" fill="#3A3A3A"/>
<path d="M85.5005 73.0279C85.3527 72.9783 85.196 72.9606 85.0408 72.9762C84.8856 72.9917 84.7356 73.0398 84.6005 73.1178C84.2105 73.3578 83.7105 74.8678 83.6005 76.4278C83.4905 77.9878 83.8905 79.5479 84.3105 79.7979C84.6197 79.9548 84.9763 79.9906 85.3105 79.898C85.6217 79.8658 85.9103 79.7197 86.1205 79.4879C86.3918 78.5119 86.5131 77.5003 86.4805 76.4879C86.5405 75.1679 86.6505 73.8579 86.3505 73.4879C86.1198 73.2526 85.8236 73.0924 85.5005 73.0279Z" fill="#3A3A3A"/>
<path d="M102.24 58.5165C102.16 56.0665 101.78 53.6464 101.36 53.1664C101.235 53.0316 101.077 52.9314 100.902 52.8754C100.727 52.8193 100.54 52.809 100.36 52.8461C100.187 52.8462 100.018 52.8966 99.8722 52.9906C99.7267 53.0846 99.6115 53.2185 99.5403 53.3764C99.2803 53.9164 99.3004 56.3062 99.3804 58.6762C99.4604 61.0462 99.6003 63.4162 99.9603 63.9262C100.072 64.0828 100.224 64.207 100.4 64.286C100.575 64.3651 100.769 64.3964 100.96 64.3764C101.132 64.3939 101.305 64.3607 101.458 64.2807C101.611 64.2006 101.737 64.0772 101.82 63.9262C102.07 63.4062 102.32 60.9565 102.24 58.5165Z" fill="#3A3A3A"/>
<path d="M104.18 73.8471C103.874 73.6813 103.529 73.5988 103.18 73.6074C102.878 73.5633 102.57 73.6268 102.31 73.7871C101.834 74.6456 101.694 75.6516 101.92 76.6074C102.09 77.8974 102.691 79.0772 103.131 79.1772C103.475 79.226 103.825 79.1632 104.131 78.9975C104.417 78.8954 104.668 78.7108 104.851 78.4672C104.98 77.6796 104.952 76.8742 104.77 76.0971C104.65 75.0971 104.53 74.0971 104.18 73.8471Z" fill="#3A3A3A"/>
<path d="M115.71 51.4462C115.579 51.3068 115.41 51.2082 115.224 51.1621C115.037 51.116 114.842 51.1246 114.66 51.1865C114.488 51.1923 114.322 51.2486 114.181 51.3481C114.041 51.4476 113.933 51.5862 113.87 51.7465C113.39 52.8765 114.56 61.4264 115.45 62.3364C115.585 62.4743 115.755 62.5732 115.942 62.6225C116.128 62.6718 116.325 62.6694 116.51 62.6162C116.683 62.6023 116.848 62.5395 116.986 62.435C117.125 62.3305 117.23 62.1887 117.29 62.0263C117.77 60.8963 116.6 52.3462 115.71 51.4462Z" fill="#3A3A3A"/>
<path d="M119.901 71.8764C119.625 71.6711 119.301 71.5403 118.961 71.4965C118.675 71.3814 118.356 71.3814 118.071 71.4965C117.691 71.6765 117.261 72.9465 117.321 74.2665C117.381 75.5865 117.881 76.8262 118.321 76.9462C118.659 77.0125 119.01 76.967 119.321 76.8163C119.612 76.7331 119.873 76.5662 120.071 76.3363C120.263 75.5923 120.31 74.818 120.211 74.0561C120.181 73.1261 120.211 72.1664 119.901 71.8764Z" fill="#3A3A3A"/>
</svg>
